<?xml version="1.0" standalone="no"?>
<!DOCTYPE svg PUBLIC "-//W3C//DTD SVG 20010904//EN"
 "http://www.w3.org/TR/2001/REC-SVG-20010904/DTD/svg10.dtd">
<svg version="1.0" xmlns="http://www.w3.org/2000/svg"
 width="1024.000000pt" height="1024.000000pt" viewBox="0 0 1024.000000 1024.000000"
 preserveAspectRatio="xMidYMid meet">

<g transform="translate(0.000000,1024.000000) scale(0.100000,-0.100000)"
fill="#000000" stroke="none">
<path d="M2652 5864 c-90 -24 -157 -61 -211 -118 -28 -30 -51 -59 -51 -64 0
-5 14 -26 30 -47 20 -25 30 -49 30 -71 l0 -34 -70 0 -70 0 0 -205 c0 -113 4
-205 8 -205 5 0 56 51 115 114 l107 114 0 59 c0 34 8 74 19 98 20 44 87 110
127 125 14 6 160 10 330 10 l304 0 0 120 0 120 -307 -1 c-233 0 -321 -4 -361
-15z"/>
<path d="M1980 5085 l0 -545 115 0 115 0 0 539 c0 482 -2 539 -16 545 -9 3
-60 6 -115 6 l-99 0 0 -545z"/>
<path d="M5622 5498 c-14 -14 -16 -48 -3 -48 5 0 14 7 21 15 11 13 15 13 41
-1 32 -16 62 -8 72 20 8 21 -11 31 -29 15 -11 -9 -20 -9 -40 0 -32 14 -47 14
-62 -1z"/>
<path d="M3560 5295 l0 -135 30 0 30 0 0 135 0 135 -30 0 -30 0 0 -135z"/>
<path d="M3690 5295 l0 -135 30 0 29 0 3 80 3 80 64 -81 c54 -68 67 -80 90
-77 l26 3 0 130 0 130 -29 0 -30 0 2 -60 c2 -52 -9 -99 -21 -85 -2 3 -30 38
-61 78 -43 53 -64 72 -82 72 l-24 0 0 -135z"/>
<path d="M4035 5418 c-30 -16 -45 -39 -45 -70 0 -37 32 -64 92 -78 55 -14 71
-35 43 -57 -19 -13 -72 -9 -107 8 -12 7 -18 4 -23 -12 -4 -12 -3 -25 2 -29 15
-16 93 -28 126 -20 54 13 65 20 78 52 20 49 -2 78 -81 104 -72 23 -89 47 -45
64 18 7 39 7 63 1 19 -6 39 -8 44 -5 17 11 8 42 -14 48 -36 9 -111 6 -133 -6z"/>
<path d="M4220 5405 c0 -22 4 -25 40 -25 l40 0 0 -110 0 -110 33 0 34 0 -1
108 -1 107 43 3 c37 3 42 6 42 28 l0 24 -115 0 -115 0 0 -25z"/>
<path d="M4490 5296 l0 -136 30 0 31 0 -3 133 -3 132 -27 3 -28 3 0 -135z"/>
<path d="M4584 5415 c-10 -24 5 -35 47 -35 l39 0 0 -110 0 -110 30 0 29 0 3
108 3 107 43 3 c37 3 42 6 42 28 l0 24 -115 0 c-92 0 -117 -3 -121 -15z"/>
<path d="M4850 5334 c0 -140 26 -174 131 -174 42 0 55 5 80 29 28 29 29 32 29
136 l0 106 -27 -3 -28 -3 -5 -98 c-5 -105 -11 -117 -62 -117 -44 0 -58 32 -58
132 l0 88 -30 0 -30 0 0 -96z"/>
<path d="M5160 5295 l0 -135 30 0 30 0 0 135 0 135 -30 0 -30 0 0 -135z"/>
<path d="M5341 5412 c-38 -19 -71 -72 -71 -115 0 -62 55 -137 101 -137 12 0
19 -7 19 -20 0 -11 5 -20 10 -20 19 0 10 -19 -10 -22 -12 -2 -21 -7 -21 -13 0
-13 27 -18 57 -11 28 8 33 42 7 61 -14 11 -12 14 23 25 46 15 64 28 64 45 0
21 -27 25 -64 10 -93 -39 -167 77 -93 145 26 25 84 26 110 3 18 -17 19 -17 33
2 18 24 14 37 -17 52 -35 18 -109 16 -148 -5z"/>
<path d="M5637 5398 c-32 -68 -97 -222 -97 -230 0 -4 13 -8 28 -8 22 0 30 7
39 30 11 31 13 31 75 28 57 -3 64 -5 76 -30 10 -21 20 -28 43 -28 16 0 29 3
28 8 0 4 -26 63 -58 132 -54 117 -59 125 -88 128 -26 3 -33 -2 -46 -30z m66
-79 c9 -23 14 -46 11 -50 -6 -10 -57 -12 -67 -3 -6 7 24 94 34 94 3 0 13 -19
22 -41z"/>
<path d="M5913 5410 c-57 -34 -81 -119 -50 -180 32 -63 138 -91 208 -55 64 34
89 128 50 191 -37 61 -144 84 -208 44z m142 -55 c55 -54 16 -147 -60 -147 -30
0 -45 6 -62 27 -50 58 -13 145 62 145 25 0 44 -8 60 -25z"/>
<path d="M6307 5424 c-4 -4 -7 -65 -7 -136 l0 -128 29 0 c28 0 30 2 33 48 l3
47 63 3 c58 3 62 4 62 27 0 24 -3 25 -65 25 l-65 0 0 35 0 34 73 3 c64 3 72 5
72 23 0 18 -8 20 -95 23 -53 1 -99 0 -103 -4z"/>
<path d="M6550 5295 l0 -135 30 0 30 0 0 135 0 135 -30 0 -30 0 0 -135z"/>
<path d="M6680 5295 l0 -135 30 0 30 0 0 81 0 82 66 -82 c49 -60 73 -81 90
-81 l24 0 0 136 0 135 -27 -3 c-27 -3 -28 -5 -33 -80 l-5 -77 -63 80 c-48 60
-69 79 -88 79 l-24 0 0 -135z"/>
<path d="M7058 5383 c-11 -26 -38 -86 -59 -132 -22 -46 -39 -85 -39 -87 0 -2
13 -4 30 -4 23 0 33 7 45 30 15 28 19 30 76 30 58 0 61 -1 72 -30 9 -25 17
-30 44 -30 l32 0 -58 133 c-56 127 -59 132 -90 135 -29 3 -33 0 -53 -45z m74
-67 c9 -24 14 -47 11 -50 -10 -10 -61 -7 -68 3 -6 11 24 91 34 91 4 0 14 -20
23 -44z"/>
<path d="M7297 5423 c-4 -3 -7 -64 -7 -135 l0 -128 30 0 30 0 0 83 1 82 22
-26 c12 -14 42 -51 67 -82 35 -43 51 -56 73 -57 l27 0 0 135 0 135 -30 0 -30
0 0 -75 c0 -41 -4 -75 -8 -75 -5 0 -35 34 -68 74 -55 70 -86 90 -107 69z"/>
<path d="M7649 5407 c-18 -12 -39 -34 -46 -47 -30 -59 -5 -148 52 -186 32 -21
112 -21 153 0 37 19 39 27 15 49 -16 13 -20 14 -37 1 -55 -40 -136 3 -136 71
0 68 81 111 136 71 17 -13 21 -12 37 1 24 22 22 28 -17 47 -50 23 -116 21
-157 -7z"/>
<path d="M7897 5424 c-4 -4 -7 -65 -7 -136 l0 -128 105 0 105 0 0 25 c0 24 -2
25 -76 25 l-75 0 3 32 c3 31 3 31 63 32 54 1 60 3 63 24 3 21 0 22 -63 22
l-66 0 3 28 c3 26 5 27 73 32 62 4 70 7 70 25 0 18 -8 20 -95 23 -53 1 -99 0
-103 -4z"/>
<path d="M8157 5423 c-4 -3 -7 -64 -7 -135 l0 -128 30 0 30 0 0 135 c0 135 0
135 -23 135 -13 0 -27 -3 -30 -7z"/>
<path d="M8280 5295 l0 -135 30 0 c28 0 30 3 30 34 0 19 5 38 11 41 20 13 58
-6 79 -40 17 -27 28 -35 51 -35 35 0 35 2 4 48 l-25 37 25 23 c27 25 34 77 14
114 -16 30 -71 48 -149 48 l-70 0 0 -135z m158 73 c35 -35 -9 -93 -65 -86 -26
3 -28 7 -31 51 l-3 47 43 0 c24 0 49 -5 56 -12z"/>
<path d="M8597 5303 c-32 -70 -57 -131 -57 -135 0 -5 13 -8 29 -8 23 0 31 6
40 30 10 29 12 30 75 30 62 0 64 -1 75 -30 8 -24 16 -30 40 -30 17 0 31 3 31
8 -1 4 -26 63 -58 132 -54 117 -59 125 -88 128 -30 3 -31 1 -87 -125z m123
-30 c0 -14 -66 -18 -74 -5 -2 4 5 28 16 52 l20 45 19 -40 c10 -22 19 -46 19
-52z"/>
<path d="M4540 5075 c-16 -19 -5 -32 14 -16 10 9 20 9 39 0 31 -14 57 -6 57
17 0 14 -3 14 -15 4 -12 -10 -21 -10 -41 -1 -33 14 -39 14 -54 -4z"/>
<path d="M2630 4915 l0 -115 69 0 69 0 91 107 c50 59 91 110 91 115 0 4 -72 8
-160 8 l-160 0 0 -115z"/>
<path d="M3570 4885 l0 -135 73 0 c117 0 182 48 182 135 0 87 -65 135 -182
135 l-73 0 0 -135z m170 100 c80 -42 77 -166 -5 -201 -19 -8 -57 -14 -85 -14
l-50 0 0 115 0 115 55 0 c31 0 69 -7 85 -15z"/>
<path d="M3897 5013 c-4 -3 -7 -64 -7 -135 l0 -128 94 0 c119 0 138 18 24 22
l-83 3 0 50 0 50 68 3 c89 4 86 22 -4 22 l-70 0 3 48 3 47 78 3 c42 2 77 7 77
12 0 11 -173 14 -183 3z"/>
<path d="M4266 4999 c-50 -39 -29 -96 45 -120 83 -26 89 -30 89 -60 0 -48 -57
-63 -125 -35 -21 9 -37 11 -41 5 -8 -14 59 -39 106 -39 30 0 47 7 65 25 46 45
26 93 -46 116 -97 31 -111 45 -84 85 12 19 24 24 56 24 22 0 49 -5 59 -10 13
-7 21 -7 25 0 8 14 -38 30 -84 30 -24 0 -48 -8 -65 -21z"/>
<path d="M4573 5008 c-11 -14 -102 -212 -110 -240 -10 -33 17 -18 34 19 l18
37 70 -2 c39 0 74 -1 78 -2 4 0 15 -16 23 -35 13 -33 34 -48 34 -25 0 19 -119
260 -128 260 -5 0 -14 -6 -19 -12z m51 -80 c35 -85 35 -88 -21 -88 -74 0 -77
6 -46 83 14 37 29 67 33 67 4 0 19 -28 34 -62z"/>
<path d="M4813 5000 c-88 -54 -81 -197 12 -236 102 -42 205 19 205 121 0 22
-9 54 -19 71 -37 60 -136 83 -198 44z m146 -26 c85 -71 42 -197 -69 -198 -40
-1 -54 4 -78 27 -35 34 -45 71 -31 121 20 73 119 100 178 50z"/>
<path d="M5200 4884 c0 -104 3 -135 13 -132 6 3 13 23 15 46 l3 42 55 0 c59 0
108 19 118 45 14 38 6 77 -23 106 -27 27 -35 29 -105 29 l-76 0 0 -136z m157
98 c36 -28 39 -67 9 -96 -21 -22 -34 -26 -81 -26 l-55 0 0 70 0 70 53 0 c34 0
60 -6 74 -18z"/>
<path d="M5490 4903 c-29 -65 -57 -123 -62 -130 -6 -7 -4 -14 3 -19 7 -4 14
-3 16 2 2 5 11 23 21 39 18 30 19 30 95 27 l76 -4 13 -34 c6 -19 18 -34 25
-34 17 0 17 1 -16 73 -67 147 -94 197 -106 197 -7 0 -36 -53 -65 -117z m125
-53 c-7 -11 -108 -14 -117 -4 -3 3 8 37 25 75 l31 70 33 -66 c19 -36 31 -70
28 -75z"/>
<path d="M5740 4914 c0 -103 1 -106 29 -135 24 -23 38 -29 73 -29 86 0 118 50
118 185 0 69 -3 85 -15 85 -12 0 -15 -18 -15 -100 0 -86 -3 -103 -20 -120 -42
-42 -116 -33 -139 16 -6 14 -11 65 -11 114 0 53 -4 90 -10 90 -6 0 -10 -42
-10 -106z"/>
<path d="M6050 4895 c0 -69 -1 -128 -2 -132 -2 -5 36 -9 85 -11 53 -2 87 1 87
7 0 6 -33 11 -72 13 l-73 3 -3 123 c-4 163 -22 161 -22 -3z"/>
<path d="M6314 5001 c-46 -28 -64 -59 -64 -111 0 -57 16 -88 59 -117 89 -60
221 6 221 112 0 104 -125 171 -216 116z m158 -40 c57 -64 24 -172 -57 -187
-101 -19 -176 77 -130 166 35 68 135 79 187 21z"/>
</g>
</svg>
