<?xml version="1.0" standalone="no"?>
<!DOCTYPE svg PUBLIC "-//W3C//DTD SVG 20010904//EN"
 "http://www.w3.org/TR/2001/REC-SVG-20010904/DTD/svg10.dtd">
<svg version="1.0" xmlns="http://www.w3.org/2000/svg"
 width="1024.000000pt" height="1024.000000pt" viewBox="0 0 1024.000000 1024.000000"
 preserveAspectRatio="xMidYMid meet">

<g transform="translate(0.000000,1024.000000) scale(0.100000,-0.100000)"
fill="#000000" stroke="none">
<path d="M2650 5866 c-84 -24 -140 -55 -200 -112 -33 -31 -60 -62 -60 -69 0
-6 13 -29 30 -51 18 -24 30 -51 30 -71 l0 -33 -70 0 -70 0 0 -205 c0 -113 4
-205 8 -205 5 0 56 51 115 114 105 113 107 115 107 163 0 70 15 114 57 163 67
78 76 80 421 80 l302 0 0 120 0 120 -312 -1 c-217 -1 -327 -5 -358 -13z"/>
<path d="M1977 5418 c-5 -175 -4 -795 2 -860 1 -16 14 -18 116 -18 l115 0 0
539 c0 482 -2 539 -16 545 -9 3 -60 6 -114 6 l-98 0 -5 -212z"/>
<path d="M5622 5498 c-12 -12 -17 -48 -7 -48 3 0 14 5 25 12 15 10 24 9 45 -2
31 -17 58 -5 63 29 4 23 -8 27 -26 9 -9 -9 -18 -9 -37 0 -33 15 -48 15 -63 0z"/>
<path d="M5945 5425 c-22 -8 -53 -28 -69 -46 -26 -29 -28 -37 -24 -91 4 -50 9
-64 36 -91 31 -30 36 -32 108 -32 74 0 76 1 110 37 29 32 34 45 34 85 0 106
-94 172 -195 138z m90 -51 c26 -10 48 -62 40 -100 -12 -65 -104 -89 -144 -38
-59 75 15 172 104 138z"/>
<path d="M3560 5295 l0 -135 30 0 30 0 0 135 0 135 -30 0 -30 0 0 -135z"/>
<path d="M3690 5295 l0 -135 30 0 30 0 0 81 0 82 66 -82 c56 -68 71 -81 96
-81 l29 0 -3 133 -3 132 -30 0 -30 0 -5 -75 -5 -75 -64 78 c-47 56 -70 77 -87
77 l-24 0 0 -135z"/>
<path d="M4035 5418 c-31 -16 -45 -39 -45 -70 0 -36 27 -59 93 -78 59 -18 74
-44 33 -60 -18 -6 -39 -5 -70 4 -43 13 -46 13 -52 -6 -8 -26 5 -38 55 -49 77
-17 161 23 161 77 0 36 -32 64 -95 82 -68 21 -84 45 -39 62 19 7 37 7 60 0 19
-6 38 -9 44 -5 18 11 11 43 -12 49 -36 9 -111 6 -133 -6z"/>
<path d="M4220 5405 c0 -22 4 -25 40 -25 l40 0 0 -110 0 -110 35 0 35 0 0 110
0 110 40 0 c36 0 40 3 40 25 l0 25 -115 0 -115 0 0 -25z"/>
<path d="M4490 5295 l0 -135 30 0 30 0 0 135 0 135 -30 0 -30 0 0 -135z"/>
<path d="M4584 5415 c-10 -24 5 -35 47 -35 l39 0 0 -110 0 -110 30 0 c17 0 30
5 31 13 0 6 1 55 2 107 l2 95 43 3 c37 3 42 6 42 28 l0 24 -115 0 c-92 0 -117
-3 -121 -15z"/>
<path d="M4850 5333 c0 -121 16 -154 79 -170 48 -13 104 -3 132 23 26 23 39
76 39 154 0 76 -8 93 -41 88 -23 -3 -24 -7 -29 -101 -5 -105 -11 -117 -62
-117 -44 0 -58 32 -58 132 l0 88 -30 0 -30 0 0 -97z"/>
<path d="M5160 5295 l0 -135 30 0 30 0 0 135 0 135 -30 0 -30 0 0 -135z"/>
<path d="M5334 5411 c-42 -25 -68 -83 -61 -134 7 -51 33 -87 80 -110 20 -10
37 -25 37 -33 0 -8 5 -14 10 -14 19 0 10 -19 -10 -22 -26 -4 -30 -22 -6 -26
36 -7 66 7 66 32 0 14 -5 26 -12 28 -16 6 0 28 20 28 24 0 62 28 62 45 0 21
-34 27 -64 11 -20 -10 -37 -12 -59 -5 -18 5 -33 9 -35 9 -2 0 -10 16 -18 36
-29 70 17 134 88 120 67 -14 83 -12 83 9 0 44 -122 62 -181 26z"/>
<path d="M5632 5388 c-12 -24 -38 -85 -60 -135 l-40 -93 33 0 c27 0 34 5 39
25 7 29 33 38 97 33 36 -2 46 -8 57 -30 10 -21 20 -28 43 -28 16 0 29 1 29 3
0 7 -71 169 -94 215 -23 45 -30 52 -55 52 -24 0 -33 -7 -49 -42z m82 -119 c-6
-11 -61 -12 -67 -1 -3 4 4 27 15 52 l20 45 19 -43 c10 -24 16 -48 13 -53z"/>
<path d="M6300 5295 l0 -135 29 0 c28 0 30 2 33 48 l3 47 63 3 c58 3 62 4 62
27 0 24 -3 25 -66 25 l-65 0 3 33 3 32 70 5 c62 4 70 7 70 25 0 19 -8 20 -102
23 l-103 3 0 -136z"/>
<path d="M6550 5295 l0 -135 29 0 c16 0 31 4 33 10 2 5 2 66 0 135 l-3 125
-30 0 -29 0 0 -135z"/>
<path d="M6679 5310 c-1 -66 -2 -126 -3 -132 -1 -8 13 -14 31 -16 l32 -3 3 78
3 78 64 -78 c54 -65 69 -77 90 -75 26 3 26 4 29 103 2 55 0 115 -3 133 -5 29
-10 33 -33 30 -26 -3 -27 -5 -30 -81 l-3 -78 -66 81 c-48 59 -71 80 -89 80
-24 0 -24 -1 -25 -120z"/>
<path d="M7053 5373 c-14 -32 -41 -91 -59 -132 -19 -41 -34 -75 -34 -77 0 -2
13 -4 30 -4 23 0 33 7 45 30 15 28 19 30 76 30 58 0 61 -1 72 -30 9 -25 17
-30 44 -30 38 0 41 -12 -33 150 -49 108 -54 115 -83 118 -30 3 -33 0 -58 -55z
m79 -57 c9 -24 14 -47 11 -50 -10 -9 -61 -7 -67 3 -6 9 25 91 34 91 3 0 13
-20 22 -44z"/>
<path d="M7297 5423 c-4 -3 -7 -64 -7 -135 l0 -128 30 0 30 0 0 83 1 82 22
-26 c12 -14 42 -51 67 -82 35 -43 51 -56 73 -57 l27 0 0 135 0 135 -30 0 -30
0 0 -75 c0 -41 -3 -75 -7 -75 -5 0 -35 34 -68 75 -56 69 -88 89 -108 68z"/>
<path d="M7649 5407 c-18 -12 -39 -34 -46 -47 -30 -59 -5 -148 52 -186 32 -21
112 -21 153 0 37 19 39 27 15 49 -16 13 -20 14 -37 1 -28 -20 -80 -17 -107 5
-35 28 -34 104 1 131 30 23 78 26 106 6 17 -13 21 -12 37 1 24 22 22 28 -17
47 -50 23 -116 21 -157 -7z"/>
<path d="M7897 5424 c-4 -4 -7 -65 -7 -136 l0 -128 105 0 105 0 0 25 c0 24 -2
25 -75 25 l-75 0 0 30 c0 29 1 29 63 32 55 3 62 5 65 25 3 20 -1 22 -60 25
-60 3 -63 4 -63 28 0 24 3 25 70 30 62 4 70 7 70 25 0 18 -8 20 -95 23 -53 1
-99 0 -103 -4z"/>
<path d="M8157 5423 c-4 -3 -7 -64 -7 -135 l0 -128 29 0 c16 0 31 4 33 10 2 5
2 66 0 135 -3 122 -4 125 -26 125 -12 0 -26 -3 -29 -7z"/>
<path d="M8280 5295 l0 -135 30 0 c28 0 30 3 30 34 0 19 5 38 11 41 20 13 54
-5 77 -40 17 -27 29 -35 52 -35 17 0 30 2 30 6 0 3 -11 22 -25 42 l-25 37 25
23 c27 25 34 77 14 114 -16 30 -71 48 -149 48 l-70 0 0 -135z m154 72 c43 -31
-10 -98 -67 -83 -23 5 -27 11 -27 45 0 21 3 41 7 44 11 12 68 8 87 -6z"/>
<path d="M8596 5304 c-31 -69 -56 -130 -56 -135 0 -5 13 -9 29 -9 22 0 31 6
41 30 12 29 15 30 75 30 61 0 63 -1 74 -30 8 -24 16 -30 40 -30 17 0 31 2 31
4 0 9 -103 242 -113 254 -5 6 -22 12 -37 12 -25 0 -31 -9 -84 -126z m119 -34
c-7 -12 -62 -13 -69 -2 -2 4 5 28 16 52 l20 45 20 -43 c10 -23 16 -47 13 -52z"/>
<path d="M4540 5075 c-16 -19 -5 -32 14 -16 10 9 20 9 39 0 31 -14 57 -6 57
17 0 14 -3 14 -15 4 -12 -10 -21 -10 -41 -1 -33 14 -39 14 -54 -4z"/>
<path d="M2630 4915 l0 -115 69 0 69 0 91 106 c50 58 91 110 91 115 0 5 -67 9
-160 9 l-160 0 0 -115z"/>
<path d="M3570 4885 l0 -135 70 0 c122 0 183 43 184 129 2 93 -60 141 -181
141 l-73 0 0 -135z m170 100 c73 -38 79 -147 12 -191 -14 -9 -54 -19 -89 -22
l-63 -5 0 117 0 116 55 0 c31 0 69 -7 85 -15z"/>
<path d="M3897 5013 c-3 -5 -6 -65 -6 -135 l-2 -128 95 0 c119 0 139 18 24 22
l-83 3 0 50 0 50 68 3 c89 4 86 22 -4 22 l-70 0 3 48 3 47 78 3 c42 2 77 7 77
12 0 12 -177 14 -183 3z"/>
<path d="M4266 4999 c-50 -39 -29 -96 45 -120 87 -28 90 -30 87 -63 -3 -27 -8
-32 -40 -40 -28 -7 -47 -5 -78 6 -50 20 -66 3 -16 -17 55 -23 112 -19 141 10
46 45 26 93 -46 116 -97 31 -111 45 -84 85 12 19 24 24 56 24 22 0 49 -5 59
-10 13 -7 21 -7 25 0 8 14 -38 30 -84 30 -24 0 -48 -8 -65 -21z"/>
<path d="M4573 5008 c-11 -14 -102 -212 -110 -240 -10 -33 17 -18 34 18 10 20
21 36 26 35 4 0 39 -1 78 -1 l70 0 15 -35 c13 -33 34 -48 34 -25 0 12 -99 229
-113 248 -5 6 -13 12 -17 12 -4 0 -12 -6 -17 -12z m51 -80 c35 -85 35 -88 -21
-88 -74 0 -78 6 -46 83 16 37 31 67 34 67 3 0 18 -28 33 -62z"/>
<path d="M4813 5000 c-115 -70 -63 -250 72 -250 114 0 183 113 126 206 -37 60
-136 83 -198 44z m153 -34 c29 -29 34 -41 34 -79 0 -75 -65 -128 -136 -111
-95 22 -121 152 -41 203 51 33 102 28 143 -13z"/>
<path d="M5200 4884 c0 -104 3 -135 13 -132 6 3 13 23 15 46 l3 42 55 0 c59 0
108 19 118 45 14 38 6 77 -23 106 -27 27 -35 29 -105 29 l-76 0 0 -136z m159
97 c17 -13 24 -29 24 -50 0 -47 -23 -64 -93 -69 l-60 -4 0 71 0 71 53 0 c35 0
60 -6 76 -19z"/>
<path d="M5510 4948 c-18 -40 -46 -99 -61 -130 -18 -39 -24 -60 -16 -65 6 -3
12 -2 14 3 2 5 11 23 21 39 18 30 19 30 95 27 l76 -4 13 -34 c6 -19 18 -34 25
-34 17 0 17 1 -16 73 -67 146 -94 197 -106 197 -7 0 -27 -33 -45 -72z m80 -28
c17 -34 28 -65 25 -70 -7 -12 -112 -14 -118 -2 -4 8 50 132 58 132 3 0 18 -27
35 -60z"/>
<path d="M5740 4914 c0 -103 1 -106 29 -135 24 -23 38 -29 73 -29 86 0 118 50
118 185 0 69 -3 85 -15 85 -12 0 -15 -17 -15 -96 0 -52 -4 -103 -10 -113 -26
-50 -125 -47 -149 5 -6 14 -11 65 -11 114 0 53 -4 90 -10 90 -6 0 -10 -42 -10
-106z"/>
<path d="M6050 4895 c0 -69 -1 -128 -2 -132 -2 -5 36 -9 85 -11 53 -2 87 1 87
7 0 6 -33 11 -72 13 l-73 3 -3 123 c-4 163 -22 161 -22 -3z"/>
<path d="M6314 5001 c-46 -28 -64 -59 -64 -111 0 -57 16 -88 59 -117 89 -60
221 6 221 112 0 104 -125 171 -216 116z m158 -40 c39 -44 39 -108 1 -151 -90
-100 -250 11 -188 130 35 68 135 79 187 21z"/>
</g>
</svg>
