<?xml version="1.0" standalone="no"?>
<!DOCTYPE svg PUBLIC "-//W3C//DTD SVG 20010904//EN"
 "http://www.w3.org/TR/2001/REC-SVG-20010904/DTD/svg10.dtd">
<svg version="1.0" xmlns="http://www.w3.org/2000/svg"
 width="2000.000000pt" height="500.000000pt" viewBox="0 0 2000.000000 500.000000"
 preserveAspectRatio="xMidYMid meet">

<g transform="translate(0.000000,500.000000) scale(0.100000,-0.100000)"
fill="#000000" stroke="none">
<path d="M3885 4178 c-76 -15 -261 -75 -316 -104 -145 -73 -286 -192 -370
-311 -33 -48 -37 -36 46 -130 70 -79 85 -111 85 -181 0 -41 -4 -64 -12 -67 -7
-2 -80 -6 -163 -8 l-150 -5 -3 -463 c-1 -255 0 -475 4 -489 5 -23 7 -23 18 -8
19 26 265 285 396 417 l115 116 1 115 c0 63 7 140 14 170 35 144 148 290 271
348 132 63 121 62 858 62 l671 0 0 275 0 275 -707 -1 c-411 -1 -729 -6 -758
-11z"/>
<path d="M2232 2343 l3 -1258 259 -3 c143 -1 263 1 268 6 4 4 8 570 8 1257 l0
1250 -270 3 -270 2 2 -1257z"/>
<path d="M10709 3325 c-28 -15 -36 -29 -49 -82 -8 -32 -7 -33 23 -33 22 0 38
8 53 27 l22 28 33 -18 c19 -10 47 -25 63 -34 23 -12 36 -13 66 -4 41 12 64 39
74 89 7 31 7 32 -28 32 -26 0 -36 -5 -41 -19 -10 -33 -42 -35 -87 -6 -49 33
-95 40 -129 20z"/>
<path d="M7048 3150 c-125 -32 -191 -152 -141 -257 23 -48 72 -78 183 -108 52
-15 107 -31 121 -36 33 -13 49 -46 38 -77 -23 -62 -191 -54 -320 15 -3 2 -16
-20 -28 -49 l-22 -52 23 -18 c63 -47 248 -71 342 -44 124 36 188 150 140 251
-23 49 -77 80 -196 114 -59 16 -116 35 -127 40 -41 22 -35 78 11 102 45 24
150 13 240 -26 13 -5 20 1 31 27 33 78 33 77 -20 100 -54 24 -210 34 -275 18z"/>
<path d="M10107 3150 c-136 -34 -226 -146 -235 -291 -10 -162 68 -278 221
-330 29 -10 51 -22 51 -26 -1 -4 -5 -22 -9 -40 -6 -30 -5 -32 27 -35 22 -2 34
-9 36 -21 4 -22 -34 -37 -71 -26 -24 7 -29 5 -38 -18 -5 -15 -6 -30 -1 -35 16
-16 77 -20 120 -8 53 14 82 41 82 78 0 28 -35 72 -58 72 -6 0 -13 4 -16 8 -11
18 13 33 70 43 62 11 126 43 158 78 20 22 19 22 -24 66 l-43 44 -31 -25 c-40
-34 -71 -45 -128 -46 -104 0 -177 56 -197 154 -20 101 17 181 105 224 74 36
146 30 212 -17 l44 -32 41 41 41 42 -28 29 c-45 47 -119 74 -211 77 -44 2 -97
-1 -118 -6z"/>
<path d="M11423 3142 c-198 -71 -280 -278 -183 -461 60 -112 156 -164 305
-165 78 0 98 3 151 28 73 33 135 93 166 161 32 71 32 189 -1 262 -28 63 -102
135 -168 165 -68 30 -200 35 -270 10z m195 -118 c79 -33 122 -99 122 -187 0
-138 -117 -227 -252 -192 -86 22 -138 93 -138 189 0 66 12 101 48 140 57 60
146 81 220 50z"/>
<path d="M15463 3142 c-99 -35 -165 -99 -199 -194 -22 -60 -21 -164 2 -228 38
-105 150 -193 262 -207 101 -12 241 28 294 84 l22 23 -44 45 c-43 44 -44 45
-64 26 -87 -78 -239 -69 -304 19 -45 60 -53 147 -21 216 53 112 207 149 301
74 l38 -31 45 37 c25 20 45 40 45 43 0 16 -58 61 -105 82 -70 31 -200 37 -272
11z"/>
<path d="M5900 2835 l0 -315 75 0 75 0 0 315 0 315 -75 0 -75 0 0 -315z"/>
<path d="M6200 2835 l0 -315 70 0 70 0 2 190 3 191 155 -191 155 -190 58 0 57
0 0 315 0 315 -70 0 -70 0 -2 -189 -3 -188 -154 188 -153 189 -59 0 -59 0 0
-315z"/>
<path d="M7420 3090 l0 -60 100 0 100 0 0 -255 0 -255 75 0 75 0 0 255 0 255
100 0 100 0 0 60 0 60 -275 0 -275 0 0 -60z"/>
<path d="M8050 2835 l0 -315 75 0 75 0 0 315 0 315 -75 0 -75 0 0 -315z"/>
<path d="M8280 3090 l0 -60 100 0 100 0 0 -255 0 -255 70 0 70 0 0 255 0 254
103 3 102 3 3 58 3 57 -276 0 -275 0 0 -60z"/>
<path d="M8892 2933 c4 -202 6 -222 27 -271 40 -89 110 -134 229 -149 112 -13
235 43 282 127 24 44 25 51 28 278 l3 232 -70 0 -71 0 0 -202 c0 -174 -3 -208
-18 -237 -26 -52 -61 -73 -122 -73 -61 0 -96 21 -122 73 -15 29 -18 63 -18
237 l0 202 -76 0 -76 0 4 -217z"/>
<path d="M9610 2835 l0 -315 70 0 70 0 0 315 0 315 -70 0 -70 0 0 -315z"/>
<path d="M10617 2843 c-75 -169 -137 -312 -137 -316 0 -4 32 -7 72 -5 l72 3
26 65 26 65 149 0 149 0 26 -65 26 -65 77 -3 c77 -3 77 -3 68 20 -5 13 -68
154 -140 313 l-130 290 -74 3 -73 3 -137 -308z m258 52 c24 -61 45 -113 45
-117 0 -5 -43 -8 -96 -8 -87 0 -96 2 -90 18 21 56 90 221 93 219 1 -2 23 -52
48 -112z"/>
<path d="M12260 2835 l0 -315 70 0 70 0 0 115 0 115 150 0 151 0 -3 58 -3 57
-148 3 -148 3 3 82 3 82 168 3 167 2 0 55 0 55 -240 0 -240 0 0 -315z"/>
<path d="M12840 2835 l0 -315 70 0 70 0 0 315 0 315 -70 0 -70 0 0 -315z"/>
<path d="M13130 2835 l0 -315 70 0 70 0 2 192 3 193 158 -193 159 -192 59 0
59 0 0 315 0 315 -70 0 -70 0 -2 -191 -3 -192 -155 191 -155 191 -62 1 -63 0
0 -315z"/>
<path d="M14036 3098 c-13 -29 -74 -165 -136 -303 -62 -137 -114 -256 -117
-262 -4 -10 14 -13 69 -13 l74 0 24 58 c13 31 27 63 33 70 7 8 49 12 147 12
98 0 140 -4 147 -12 6 -7 20 -39 33 -70 l24 -58 74 0 c66 0 73 2 68 18 -4 9
-66 151 -139 314 l-132 298 -73 0 -73 0 -23 -52z m146 -210 l46 -113 -49 -3
c-27 -2 -71 -2 -98 0 l-49 3 47 112 c25 62 48 113 52 113 3 0 26 -51 51 -112z"/>
<path d="M14550 2835 l0 -315 75 0 75 0 2 188 3 188 154 -188 155 -188 58 0
58 0 0 315 0 315 -70 0 -70 0 -2 -190 -3 -189 -155 189 -154 190 -63 0 -63 0
0 -315z"/>
<path d="M15950 2835 l0 -315 240 0 240 0 0 60 0 60 -170 0 -170 0 0 75 0 75
145 0 145 0 0 55 0 55 -145 0 -145 0 0 70 0 70 165 0 165 0 0 55 0 55 -235 0
-235 0 0 -315z"/>
<path d="M16550 2835 l0 -315 75 0 75 0 0 315 0 315 -75 0 -75 0 0 -315z"/>
<path d="M16850 2835 l0 -315 75 0 75 0 0 90 0 90 64 0 65 0 62 -90 62 -90 80
0 79 0 -38 53 c-118 163 -109 148 -88 160 10 6 35 26 55 46 78 77 75 215 -6
297 -63 63 -112 74 -317 74 l-168 0 0 -315z m345 183 c54 -24 73 -113 35 -161
-26 -33 -75 -47 -162 -47 l-68 0 0 110 0 110 85 0 c46 0 96 -5 110 -12z"/>
<path d="M17701 3128 c-5 -13 -60 -135 -121 -273 -62 -137 -121 -269 -131
-292 l-18 -43 73 0 73 0 31 70 31 70 145 0 144 0 29 -70 28 -70 77 0 76 0
-141 315 -141 315 -73 0 c-67 0 -74 -2 -82 -22z m179 -354 c0 -2 -45 -4 -99
-4 l-99 0 51 120 50 121 49 -117 c26 -64 48 -118 48 -120z"/>
<path d="M8182 2318 c-28 -31 -40 -78 -19 -78 9 0 22 12 29 28 18 38 49 39 99
3 23 -17 48 -31 55 -31 41 0 84 44 84 85 0 24 -26 17 -38 -9 -17 -39 -45 -41
-93 -6 -50 36 -88 38 -117 8z"/>
<path d="M3747 2203 c-9 -8 -9 -496 -1 -517 5 -14 28 -16 151 -16 l144 0 33
33 c18 17 77 84 131 147 55 63 102 117 105 120 3 3 34 39 70 80 36 41 77 89
92 105 16 17 28 36 28 43 0 9 -81 12 -373 12 -206 0 -377 -3 -380 -7z"/>
<path d="M7645 2180 c-96 -14 -159 -66 -170 -143 -16 -103 36 -152 211 -200
144 -39 174 -61 174 -126 0 -62 -74 -111 -166 -111 -55 0 -143 25 -178 51 -28
21 -30 21 -43 3 -20 -27 -13 -36 52 -69 54 -27 67 -30 160 -30 120 0 171 18
210 74 35 52 36 137 0 179 -29 34 -62 49 -199 88 -123 34 -156 59 -156 118 0
79 52 116 162 116 43 0 81 -8 120 -24 l56 -23 11 23 c10 22 7 26 -28 44 -22
11 -59 22 -83 25 -23 4 -52 8 -63 9 -11 2 -43 0 -70 -4z"/>
<path d="M8924 2180 c-63 -9 -145 -53 -185 -97 -52 -60 -72 -111 -77 -198 -7
-139 50 -240 170 -301 76 -39 199 -45 283 -13 80 30 155 104 181 179 85 247
-108 469 -372 430z m194 -83 c83 -41 132 -127 132 -231 0 -78 -20 -126 -75
-183 -106 -108 -268 -110 -375 -4 -138 138 -89 368 92 433 68 24 159 18 226
-15z"/>
<path d="M12390 2179 c-255 -43 -349 -369 -158 -546 120 -110 330 -112 448 -6
120 108 143 287 54 421 -69 105 -201 155 -344 131z m159 -66 c149 -48 218
-221 147 -367 -92 -188 -381 -189 -474 -3 -109 218 93 446 327 370z"/>
<path d="M5930 1866 l0 -316 145 0 c213 0 282 19 363 101 61 62 85 132 80 234
-7 130 -59 208 -178 264 -52 24 -66 26 -232 29 l-178 4 0 -316z m363 243 c50
-17 113 -72 138 -122 12 -22 24 -66 26 -97 10 -110 -43 -206 -139 -254 -48
-24 -61 -26 -190 -26 l-138 0 0 253 c0 140 3 257 8 261 11 12 251 0 295 -15z"/>
<path d="M6670 1865 l0 -315 225 0 225 0 0 30 0 30 -190 0 -190 0 0 115 0 115
163 2 162 3 3 28 3 27 -165 0 -166 0 0 115 0 115 185 0 185 0 0 25 0 25 -220
0 -220 0 0 -315z"/>
<path d="M8252 2163 c-6 -10 -67 -144 -137 -298 -70 -154 -132 -288 -137 -297
-7 -16 -4 -18 25 -18 33 0 35 2 72 85 l38 85 179 -2 180 -3 36 -82 c34 -81 36
-83 70 -83 18 0 32 4 30 9 -1 5 -66 146 -143 315 l-140 306 -32 0 c-21 0 -36
-6 -41 -17z m117 -219 c39 -89 71 -165 71 -168 0 -3 -67 -6 -150 -6 -82 0
-150 2 -150 4 0 5 139 317 147 329 7 11 2 20 82 -159z"/>
<path d="M9710 1865 l0 -315 30 0 30 0 0 100 0 100 107 0 c136 0 212 20 263
69 80 77 80 216 -1 293 -57 54 -114 68 -286 68 l-143 0 0 -315z m345 238 c54
-28 78 -71 77 -141 0 -67 -20 -98 -82 -129 -39 -20 -60 -23 -162 -23 l-118 0
0 161 0 162 123 -5 c97 -4 130 -9 162 -25z"/>
<path d="M10491 2158 c-5 -13 -68 -151 -140 -308 -72 -156 -131 -288 -131
-293 0 -5 14 -7 32 -5 29 3 34 9 67 86 l35 82 179 0 178 0 39 -85 c37 -80 41
-85 71 -85 38 0 52 -39 -118 333 l-136 297 -34 0 c-25 0 -36 -5 -42 -22z m119
-213 c40 -91 71 -168 68 -170 -3 -3 -71 -4 -151 -3 l-146 3 68 150 c37 83 70
158 74 168 3 9 8 17 10 17 2 0 37 -74 77 -165z"/>
<path d="M10940 2008 c1 -276 20 -358 100 -413 48 -33 91 -45 165 -45 88 0
134 16 181 64 65 64 74 109 74 358 l0 208 -29 0 -29 0 -4 -222 c-3 -242 -7
-258 -65 -312 -53 -49 -182 -55 -245 -12 -17 12 -41 39 -52 61 -19 36 -21 60
-24 263 l-3 222 -35 0 -34 0 0 -172z"/>
<path d="M11660 1865 l0 -315 210 0 210 0 0 30 0 30 -175 0 -175 0 0 285 0
285 -35 0 -35 0 0 -315z"/>
</g>
</svg>
