<?xml version="1.0" standalone="no"?>
<!DOCTYPE svg PUBLIC "-//W3C//DTD SVG 20010904//EN"
 "http://www.w3.org/TR/2001/REC-SVG-20010904/DTD/svg10.dtd">
<svg version="1.0" xmlns="http://www.w3.org/2000/svg"
 width="2000.000000pt" height="500.000000pt" viewBox="0 0 2000.000000 500.000000"
 preserveAspectRatio="xMidYMid meet">

<g transform="translate(0.000000,500.000000) scale(0.100000,-0.100000)"
fill="#000000" stroke="none">
<path d="M2410 3900 c-117 -26 -129 -29 -225 -66 -108 -41 -190 -89 -284 -168
-72 -60 -176 -178 -183 -207 -1 -9 20 -42 47 -74 86 -100 95 -116 101 -186 10
-97 7 -99 -177 -99 l-149 0 -6 -25 c-8 -34 1 -910 10 -924 5 -7 40 23 94 81
48 51 163 171 257 266 l170 173 -4 107 c-2 77 2 126 14 172 41 162 148 301
278 363 134 64 107 62 847 62 l675 0 -1 28 c0 15 -1 137 -2 272 l-2 245 -692
-1 c-609 -2 -702 -4 -768 -19z"/>
<path d="M10307 3630 c-30 -24 -57 -74 -57 -107 0 -20 5 -23 35 -23 28 0 38 5
47 25 16 36 50 41 100 14 105 -55 98 -53 142 -38 33 11 46 23 64 59 33 65 30
80 -16 80 -29 0 -39 -5 -47 -22 -16 -36 -63 -35 -123 1 -58 37 -108 40 -145
11z"/>
<path d="M5815 3421 c-75 -20 -155 -72 -155 -101 0 -5 -4 -10 -9 -10 -15 0
-33 -105 -25 -147 8 -48 35 -93 71 -119 36 -26 107 -54 138 -54 13 0 26 -4 29
-9 4 -5 29 -12 56 -16 27 -4 52 -11 56 -16 3 -5 13 -9 23 -9 10 0 30 -11 45
-25 34 -32 35 -74 0 -106 -24 -23 -32 -24 -137 -23 -97 0 -119 3 -162 24 -27
13 -57 27 -66 31 -13 6 -23 -4 -43 -43 -14 -27 -26 -55 -26 -62 0 -34 200 -97
303 -96 50 1 149 22 193 41 99 44 149 143 125 248 -18 84 -93 131 -276 176
-77 19 -133 41 -152 61 -32 31 -9 95 44 123 41 21 167 14 235 -14 75 -30 75
-30 83 -2 4 12 14 37 23 55 18 40 12 48 -55 75 -53 20 -265 33 -318 18z"/>
<path d="M9590 3424 c-26 -5 -72 -24 -128 -52 -19 -9 -53 -38 -77 -64 -117
-124 -139 -323 -52 -471 21 -36 90 -106 132 -135 25 -17 88 -42 106 -42 29 0
61 -19 53 -32 -4 -6 -10 -26 -14 -44 -7 -32 -6 -34 17 -34 35 0 63 -18 63 -40
0 -27 -34 -42 -87 -38 -44 3 -47 1 -54 -26 -5 -17 -6 -32 -3 -35 3 -4 42 -6
87 -6 69 0 87 4 114 23 37 26 47 51 39 97 -5 27 -15 37 -46 52 -27 12 -40 24
-40 38 0 18 10 23 63 34 63 12 144 39 162 53 53 41 75 62 75 71 0 11 -86 97
-97 97 -3 0 -22 -13 -42 -28 -54 -42 -85 -52 -158 -52 -63 0 -143 23 -143 42
0 4 -6 8 -14 8 -38 0 -96 124 -95 203 1 141 107 247 246 247 73 0 116 -14 166
-52 l37 -30 38 30 c20 16 45 39 55 50 18 20 18 21 -35 60 -81 61 -119 73 -238
77 -58 2 -116 1 -130 -1z"/>
<path d="M11230 3424 c-26 -5 -72 -24 -128 -52 -45 -23 -115 -99 -141 -153
-35 -71 -47 -166 -33 -250 7 -38 22 -88 33 -111 33 -65 103 -132 171 -165 229
-110 482 -33 589 178 30 59 33 71 33 164 0 87 -3 107 -26 157 -49 105 -118
172 -218 212 -45 18 -224 30 -280 20z m203 -149 c50 -21 101 -68 126 -116 27
-51 30 -183 5 -232 -46 -91 -121 -137 -226 -137 -62 0 -80 4 -124 29 -175 101
-163 359 21 450 49 25 147 27 198 6z"/>
<path d="M16200 3424 c-14 -3 -34 -9 -45 -14 -11 -5 -38 -17 -60 -27 -35 -15
-111 -83 -140 -124 -33 -47 -65 -159 -65 -227 2 -142 91 -282 220 -344 155
-75 348 -55 468 48 l44 37 -49 48 c-26 27 -52 49 -57 49 -6 0 -19 -9 -30 -19
-49 -45 -94 -61 -170 -61 -74 0 -91 5 -157 50 -81 54 -118 181 -83 282 24 67
93 139 150 156 89 26 180 12 246 -39 20 -16 40 -29 43 -29 3 0 28 21 56 47
l50 46 -28 30 c-15 16 -57 42 -93 59 -57 27 -77 31 -170 34 -58 1 -116 0 -130
-2z"/>
<path d="M4410 3040 l0 -380 80 0 80 0 0 380 0 380 -80 0 -80 0 0 -380z"/>
<path d="M4770 3040 l0 -380 80 0 80 0 0 224 c0 163 3 227 12 232 6 4 13 3 15
-3 2 -6 13 -22 24 -35 40 -46 55 -64 94 -113 22 -27 45 -55 50 -61 6 -6 53
-64 105 -127 l95 -116 73 0 72 -1 0 380 0 380 -85 0 -85 0 0 -224 c0 -124 -4
-227 -8 -230 -4 -2 -19 10 -32 27 -14 17 -39 47 -55 67 -17 19 -57 69 -90 110
-75 93 -82 101 -144 175 -28 33 -51 63 -51 68 0 4 -34 7 -75 7 l-75 0 0 -380z"/>
<path d="M6274 3406 c-3 -7 -4 -35 -2 -62 l3 -49 120 -5 120 -5 3 -312 2 -313
90 0 90 0 2 313 3 312 110 2 c61 0 116 1 123 2 8 1 12 21 12 66 l0 65 -335 0
c-276 0 -337 -2 -341 -14z"/>
<path d="M7050 3040 l0 -380 85 0 85 0 0 380 0 380 -85 0 -85 0 0 -380z"/>
<path d="M7330 3355 c0 -45 4 -65 13 -66 6 0 55 0 107 1 53 1 103 -2 113 -6
16 -6 17 -32 17 -315 l0 -309 85 0 85 0 2 313 3 312 110 1 c61 1 116 2 123 3
8 1 12 21 12 66 l0 65 -335 0 -335 0 0 -65z"/>
<path d="M8080 3173 c0 -156 4 -260 11 -282 25 -77 44 -114 79 -150 45 -46 87
-68 160 -87 158 -39 319 17 396 138 41 65 54 161 54 406 l0 222 -84 0 -84 0
-4 -252 c-3 -239 -5 -255 -26 -296 -32 -60 -72 -82 -150 -82 -81 0 -126 24
-159 84 -14 26 -17 71 -21 289 l-4 257 -84 0 -84 0 0 -247z"/>
<path d="M8960 3040 l0 -380 85 0 85 0 0 380 0 380 -85 0 -85 0 0 -380z"/>
<path d="M10360 3409 c0 -6 -13 -40 -30 -76 -16 -35 -30 -66 -30 -68 0 -5 -70
-160 -139 -307 -17 -37 -31 -70 -31 -72 0 -3 -14 -35 -31 -73 -17 -37 -38 -84
-46 -103 -9 -19 -18 -38 -20 -42 -2 -5 34 -8 82 -8 l85 0 14 33 c8 17 24 53
35 80 l21 47 183 0 c181 0 184 0 194 -22 26 -54 43 -97 43 -106 0 -24 31 -33
108 -30 l80 3 -27 65 c-34 80 -62 140 -112 248 -22 46 -39 86 -39 90 0 4 -11
29 -24 57 -27 55 -61 131 -96 215 -13 30 -28 61 -33 68 -12 16 -187 17 -187 1z
m116 -196 c6 -16 32 -77 58 -138 25 -60 46 -113 46 -117 0 -5 -57 -8 -126 -8
-138 0 -134 -3 -104 65 5 11 18 43 30 70 12 28 25 59 30 70 4 11 13 35 20 53
15 39 31 41 46 5z"/>
<path d="M12220 3040 l0 -380 85 0 85 0 0 140 0 140 180 0 180 0 0 65 0 65
-177 2 -178 3 0 105 0 105 198 3 197 2 0 65 0 65 -285 0 -285 0 0 -380z"/>
<path d="M12930 3040 l0 -380 85 0 85 0 0 380 0 380 -85 0 -85 0 0 -380z"/>
<path d="M13295 3408 c-2 -7 -3 -177 -2 -378 l2 -365 83 -3 82 -3 0 226 c0
185 2 225 14 225 7 0 22 -12 32 -27 9 -15 26 -37 37 -48 10 -11 31 -36 46 -55
14 -19 31 -40 37 -47 6 -7 60 -71 119 -142 l107 -131 74 0 74 0 0 380 0 380
-85 0 -85 0 0 -225 c0 -180 -3 -225 -13 -225 -8 0 -38 30 -68 67 -69 86 -79
98 -125 154 -22 25 -50 59 -64 76 -14 17 -47 59 -75 92 l-50 61 -68 0 c-45 0
-69 -4 -72 -12z"/>
<path d="M14417 3388 c-8 -18 -24 -53 -35 -78 -11 -25 -34 -76 -51 -113 -17
-38 -31 -70 -31 -72 0 -4 -37 -87 -86 -195 -14 -30 -32 -68 -39 -85 -7 -16
-27 -60 -44 -98 -17 -37 -31 -72 -31 -77 0 -7 30 -10 81 -8 88 3 86 2 112 68
8 19 19 47 25 63 l12 27 185 0 185 0 21 -47 c11 -27 27 -63 35 -80 l14 -33 89
0 89 0 -23 48 c-28 55 -85 182 -85 187 0 4 -38 88 -101 223 -22 46 -39 85 -39
87 0 2 -13 32 -29 67 -15 35 -37 82 -47 106 l-18 42 -87 0 -87 0 -15 -32z
m137 -215 c32 -79 38 -91 65 -155 12 -26 21 -52 21 -57 0 -13 -236 -15 -244
-3 -2 4 1 21 9 37 21 47 41 95 72 172 15 40 33 73 39 73 6 0 23 -30 38 -67z"/>
<path d="M15047 3413 c-9 -8 -9 -716 -1 -737 5 -13 22 -16 85 -16 l79 0 0 225
c0 185 2 225 14 225 7 0 22 -12 32 -27 9 -15 26 -37 37 -48 10 -11 31 -36 46
-55 14 -19 31 -40 37 -47 6 -7 60 -71 119 -142 l107 -131 74 0 74 0 0 380 0
380 -85 0 -85 0 0 -230 c0 -127 -4 -230 -9 -230 -5 0 -35 33 -67 72 -87 108
-89 109 -130 159 -22 25 -50 59 -64 76 -14 17 -47 59 -75 92 l-50 61 -66 0
c-36 0 -69 -3 -72 -7z"/>
<path d="M16750 3040 l0 -380 295 0 295 0 0 65 0 65 -207 2 -208 3 0 90 0 90
178 3 177 2 0 55 c0 30 1 58 3 63 1 4 -79 9 -178 12 l-180 5 -3 83 c-2 45 -2
83 0 84 2 1 95 4 208 7 l205 6 0 60 0 60 -292 3 -293 2 0 -380z"/>
<path d="M17500 3040 l0 -380 85 0 85 0 0 380 0 380 -85 0 -85 0 0 -380z"/>
<path d="M17860 3040 l0 -380 85 0 85 0 0 98 c0 63 4 102 12 110 7 7 41 12 84
12 82 0 74 7 174 -139 l55 -80 88 -1 c48 0 87 2 87 5 0 4 -92 137 -117 170
-45 58 -45 58 12 102 97 76 131 200 84 310 -23 55 -71 108 -114 128 -97 44
-102 45 -321 45 l-214 0 0 -380z m374 238 c66 -13 115 -53 118 -96 6 -87 -10
-126 -64 -155 -28 -15 -53 -17 -143 -15 l-110 3 -3 129 c-2 97 1 131 10 138
19 11 126 10 192 -4z"/>
<path d="M18911 3398 c-13 -35 -59 -137 -87 -193 -13 -28 -24 -53 -24 -57 0
-4 -16 -42 -36 -85 -20 -43 -44 -96 -54 -118 -39 -87 -68 -152 -89 -200 -12
-27 -26 -58 -31 -67 -9 -17 -3 -18 77 -18 l88 0 13 33 c7 17 19 46 27 62 7 17
16 38 19 48 5 15 23 17 190 17 l185 0 25 -53 c13 -29 28 -65 31 -80 7 -27 8
-27 96 -27 49 0 89 3 89 6 0 3 -6 20 -14 37 -8 18 -24 55 -37 82 -12 28 -37
84 -56 125 -19 41 -41 89 -48 105 -8 17 -24 55 -38 85 -54 122 -65 146 -78
179 -8 18 -25 56 -39 85 l-25 51 -88 3 c-83 3 -88 2 -96 -20z m120 -195 c23
-52 27 -62 59 -138 11 -27 25 -58 30 -67 25 -45 17 -48 -110 -48 -108 0 -120
2 -120 18 0 21 108 282 117 282 1 0 12 -21 24 -47z"/>
<path d="M768 3323 c-2 -5 -2 -569 0 -1255 l2 -1248 265 0 265 0 2 1240 c0
682 1 1246 2 1253 1 9 -60 13 -266 15 -147 1 -268 -1 -270 -5z"/>
<path d="M7212 2397 c-25 -26 -41 -87 -24 -87 7 0 18 13 26 29 9 16 23 31 31
35 23 8 53 8 57 -1 7 -16 97 -73 116 -73 11 0 31 9 45 20 25 20 50 73 40 84
-12 12 -33 6 -33 -9 0 -17 -39 -55 -56 -55 -7 0 -39 18 -70 40 -65 46 -101 50
-132 17z"/>
<path d="M6491 2210 c-76 -24 -124 -71 -146 -142 -18 -55 -18 -58 2 -105 24
-60 78 -103 159 -127 32 -9 67 -21 76 -27 10 -5 26 -9 36 -9 25 0 114 -32 145
-53 41 -27 62 -83 47 -127 -17 -48 -38 -69 -88 -91 -54 -24 -178 -25 -242 -3
-61 20 -108 43 -115 54 -10 17 -32 11 -38 -10 -18 -69 187 -135 345 -110 124
19 188 71 203 166 18 118 -32 173 -205 225 -36 11 -87 26 -114 34 -26 8 -53
15 -58 15 -20 0 -67 41 -82 72 -43 86 21 177 134 192 72 10 167 -3 222 -29 33
-16 50 -19 57 -12 32 32 -5 62 -111 91 -71 20 -158 19 -227 -4z"/>
<path d="M8075 2211 c-74 -24 -136 -64 -184 -118 -55 -63 -54 -61 -74 -115
-24 -61 -25 -231 -2 -274 8 -16 15 -33 15 -37 0 -14 52 -80 90 -114 145 -132
407 -132 551 1 81 73 119 166 119 286 0 120 -35 205 -113 277 -109 101 -269
138 -402 94z m260 -72 c66 -29 128 -90 159 -155 35 -74 37 -206 5 -279 -23
-53 -103 -145 -125 -145 -8 0 -14 -4 -14 -8 0 -14 -110 -42 -166 -42 -103 0
-205 48 -261 122 -55 73 -66 108 -67 204 -1 81 2 97 27 146 36 70 86 121 151
153 70 34 219 36 291 4z"/>
<path d="M12345 2211 c-110 -36 -189 -99 -242 -196 -27 -48 -28 -56 -28 -180
l0 -130 47 -70 c70 -106 155 -160 274 -175 231 -29 405 82 458 291 20 80 20
99 1 174 -20 79 -42 121 -90 173 -103 112 -279 160 -420 113z m259 -72 c90
-39 151 -110 180 -209 20 -67 20 -116 1 -177 -40 -123 -94 -179 -228 -232 -41
-16 -140 -13 -200 5 -78 25 -167 97 -183 148 -4 12 -10 23 -15 26 -4 3 -13 38
-19 77 -25 162 38 292 175 358 69 33 218 36 289 4z"/>
<path d="M4440 1839 l0 -381 218 4 217 4 65 31 c126 59 190 142 212 274 28
173 -47 329 -193 401 -80 39 -141 48 -339 48 l-180 0 0 -381z m465 292 c58
-28 125 -89 154 -140 7 -14 19 -53 27 -88 22 -106 -11 -218 -86 -293 -74 -74
-147 -94 -345 -95 l-140 0 -3 323 -2 322 167 0 c165 0 169 -1 228 -29z"/>
<path d="M5360 1840 l0 -380 264 0 c269 0 281 2 269 38 -4 9 -58 12 -228 12
-127 0 -226 4 -230 9 -10 18 -12 280 -1 291 6 6 86 10 203 10 l193 0 0 25 0
25 -200 0 c-171 0 -200 2 -201 15 0 8 0 67 0 130 0 63 0 122 0 130 1 12 35 15
224 17 l222 3 0 25 0 25 -257 3 -258 2 0 -380z"/>
<path d="M7272 2151 c-18 -39 -32 -75 -32 -80 0 -6 -4 -11 -10 -11 -5 0 -10
-6 -10 -14 0 -8 -13 -41 -30 -74 -16 -34 -30 -63 -30 -67 0 -3 -18 -42 -39
-88 -22 -45 -49 -104 -61 -132 -12 -27 -40 -87 -61 -132 -22 -45 -39 -84 -39
-87 0 -3 15 -6 33 -6 32 0 35 4 66 73 17 39 38 83 46 97 l14 25 224 3 225 2
10 -27 c5 -16 25 -61 43 -100 31 -69 34 -73 66 -73 18 0 33 2 33 4 0 7 -32 80
-65 151 -18 39 -43 93 -55 120 -13 28 -39 86 -60 130 -20 44 -45 98 -55 120
-9 22 -28 62 -41 88 -13 27 -24 53 -24 58 0 5 -11 27 -25 49 -21 34 -31 40
-59 40 -31 0 -34 -4 -64 -69z m92 -43 c8 -18 26 -60 41 -93 47 -107 53 -119
83 -185 16 -36 32 -75 36 -88 l7 -22 -190 0 c-150 0 -191 3 -191 13 0 7 4 17
8 22 5 6 19 35 32 65 21 51 51 119 85 195 7 17 23 51 34 78 11 26 25 47 30 47
6 0 17 -15 25 -32z"/>
<path d="M9080 1840 l0 -380 35 0 35 0 0 118 0 119 158 6 c86 4 173 11 193 17
52 15 114 63 146 112 23 38 26 53 26 128 0 74 -3 90 -25 125 -71 111 -142 135
-403 135 l-165 0 0 -380z m408 304 c41 -17 92 -61 92 -80 0 -7 6 -14 13 -17
17 -5 16 -169 -1 -175 -7 -2 -12 -10 -12 -17 0 -20 -58 -61 -112 -80 -36 -12
-79 -15 -180 -13 l-133 3 -3 198 -2 197 150 0 c114 0 160 -4 188 -16z"/>
<path d="M10029 2153 c-17 -38 -44 -97 -61 -133 -41 -88 -71 -154 -102 -222
-27 -61 -57 -125 -112 -246 -19 -41 -34 -78 -34 -83 0 -6 14 -9 31 -7 33 3 36
8 90 126 l33 72 223 0 222 0 15 -32 c82 -182 72 -168 111 -168 31 0 34 2 27
18 -5 9 -17 35 -27 57 -10 22 -37 82 -61 134 -24 51 -44 95 -44 96 0 2 -18 43
-41 92 -22 48 -50 108 -61 133 -102 226 -104 230 -142 230 -34 0 -37 -3 -67
-67z m88 -40 c7 -16 24 -55 39 -88 14 -33 35 -80 46 -105 10 -25 30 -66 43
-91 12 -26 26 -61 30 -78 l7 -31 -187 0 -187 0 7 27 c3 15 16 48 27 73 47 104
90 197 103 223 8 16 15 34 15 41 0 14 28 56 38 56 4 0 13 -12 19 -27z"/>
<path d="M10603 2204 c-3 -8 -3 -128 0 -267 5 -271 10 -297 66 -379 86 -125
345 -142 467 -31 36 32 51 58 76 128 15 43 17 88 18 308 l0 257 -35 0 -35 0 0
-260 c0 -274 -4 -302 -52 -372 -31 -45 -115 -78 -197 -78 -38 0 -73 5 -76 10
-3 6 -16 10 -27 10 -26 0 -108 83 -108 108 0 10 -6 24 -12 30 -10 10 -14 84
-16 282 l-4 270 -29 0 c-18 0 -32 -6 -36 -16z"/>
<path d="M11490 1840 l0 -380 253 2 c244 3 252 4 252 23 0 19 -8 20 -215 25
l-215 5 -3 353 -2 352 -35 0 -35 0 0 -380z"/>
<path d="M2283 1924 c-5 -10 -7 -130 -5 -266 l4 -248 152 0 152 0 71 83 c179
210 280 326 326 375 27 29 47 56 44 59 -4 3 -170 8 -371 11 -350 5 -364 4
-373 -14z"/>
</g>
</svg>
